<svg width="298" height="38" viewBox="0 0 298 38" fill="none" xmlns="http://www.w3.org/2000/svg">
<path d="M0.148438 37V32.8984L3.78125 32.1953V7.70312L0.148438 7V2.875H16.3203C18.9453 2.875 21.1953 3.28125 23.0703 4.09375C24.9453 4.90625 26.3828 6.07031 27.3828 7.58594C28.3984 9.10156 28.9062 10.9219 28.9062 13.0469C28.9062 15.0469 28.4062 16.8359 27.4062 18.4141C26.4062 19.9922 25.0156 21.2344 23.2344 22.1406C21.4531 23.0469 19.3984 23.5078 17.0703 23.5234H10.625V32.1953L14.2812 32.8984V37H0.148438ZM22.1094 37L16.3672 22.2578L22.5312 20.7344L27.5 32.2188L30.4062 32.8984V37H22.1094ZM10.625 18.25H16.2031C18.1719 18.25 19.6406 17.8359 20.6094 17.0078C21.5938 16.1641 22.0859 14.9453 22.0859 13.3516C22.0859 11.7734 21.6016 10.5156 20.6328 9.57812C19.6641 8.625 18.2266 8.14844 16.3203 8.14844H10.625V18.25ZM45.4062 37.4922C42.9062 37.4922 40.7578 36.9453 38.9609 35.8516C37.1641 34.7578 35.7891 33.2422 34.8359 31.3047C33.8828 29.3516 33.4062 27.1094 33.4062 24.5781V24.0859C33.4062 21.5703 33.8828 19.3438 34.8359 17.4062C35.7891 15.4531 37.1562 13.9297 38.9375 12.8359C40.7344 11.7266 42.875 11.1719 45.3594 11.1719C47.875 11.1719 50.0234 11.7266 51.8047 12.8359C53.5859 13.9297 54.9531 15.4453 55.9062 17.3828C56.8594 19.3203 57.3359 21.5547 57.3359 24.0859V24.5781C57.3359 27.1094 56.8594 29.3516 55.9062 31.3047C54.9531 33.2422 53.5859 34.7578 51.8047 35.8516C50.0234 36.9453 47.8906 37.4922 45.4062 37.4922ZM45.4062 32.2422C46.5938 32.2422 47.5625 31.9219 48.3125 31.2812C49.0625 30.6406 49.6172 29.75 49.9766 28.6094C50.3359 27.4531 50.5156 26.1094 50.5156 24.5781V24.0859C50.5156 22.5859 50.3359 21.2656 49.9766 20.125C49.6172 18.9688 49.0547 18.0703 48.2891 17.4297C47.5391 16.7734 46.5625 16.4453 45.3594 16.4453C44.1875 16.4453 43.2188 16.7734 42.4531 17.4297C41.6875 18.0703 41.125 18.9688 40.7656 20.125C40.4219 21.2656 40.25 22.5859 40.25 24.0859V24.5781C40.25 26.1094 40.4219 27.4531 40.7656 28.6094C41.125 29.7656 41.6875 30.6641 42.4531 31.3047C43.2188 31.9297 44.2031 32.2422 45.4062 32.2422ZM72.6172 37.4922C70.1797 37.4922 68.0703 36.9453 66.2891 35.8516C64.5234 34.7578 63.1641 33.25 62.2109 31.3281C61.2578 29.3906 60.7812 27.1797 60.7812 24.6953V23.9922C60.7812 21.4922 61.2656 19.2812 62.2344 17.3594C63.2031 15.4375 64.5703 13.9297 66.3359 12.8359C68.1016 11.7266 70.1797 11.1719 72.5703 11.1719C74.8516 11.1719 76.8125 11.5312 78.4531 12.25C80.1094 12.9531 81.4531 13.7734 82.4844 14.7109L82.4375 21.9766H77.2812L76.3672 17.4531C75.9922 17.0781 75.5156 16.7734 74.9375 16.5391C74.3594 16.3047 73.7734 16.1875 73.1797 16.1875C71.9297 16.1875 70.8906 16.5 70.0625 17.125C69.25 17.75 68.6406 18.6406 68.2344 19.7969C67.8281 20.9531 67.625 22.3516 67.625 23.9922V24.6953C67.625 26.4297 67.8516 27.8594 68.3047 28.9844C68.7578 30.0938 69.3594 30.9141 70.1094 31.4453C70.875 31.9766 71.7266 32.2422 72.6641 32.2422C73.8672 32.2422 74.8281 31.9297 75.5469 31.3047C76.2812 30.6641 76.7812 29.7656 77.0469 28.6094H82.9062L82.9766 28.75C82.7109 30.5469 82.1797 32.1016 81.3828 33.4141C80.6016 34.7266 79.4922 35.7344 78.0547 36.4375C76.6328 37.1406 74.8203 37.4922 72.6172 37.4922ZM85.6719 37V32.8984L88.9766 32.1953V5.26562L85.3203 4.5625V0.4375H95.7969V32.1953L98.75 32.8984V37H85.6719ZM101.82 37V33.1094L103.742 32.6641L103.695 32.5703L98.6797 25.75L103.039 21.2734L111.359 32.1719L114.5 32.8984V37H101.82ZM95.0703 30.0625L91.7891 26.2422L102.805 16.1641L102.852 16.0938L100.25 15.7188V11.6406H113.445V15.7656L110.164 16.5859L95.0703 30.0625ZM127.766 37.4922C125.344 37.4922 123.227 36.9609 121.414 35.8984C119.602 34.8203 118.195 33.3438 117.195 31.4688C116.211 29.5938 115.719 27.4531 115.719 25.0469V24.1094C115.719 21.5938 116.188 19.3672 117.125 17.4297C118.062 15.4766 119.383 13.9453 121.086 12.8359C122.805 11.7109 124.828 11.1562 127.156 11.1719C129.453 11.1719 131.383 11.625 132.945 12.5312C134.508 13.4375 135.695 14.7422 136.508 16.4453C137.32 18.1484 137.727 20.2109 137.727 22.6328V26.3594H122.82L122.773 26.5C122.867 27.6094 123.141 28.6016 123.594 29.4766C124.062 30.3359 124.719 31.0156 125.562 31.5156C126.406 32 127.43 32.2422 128.633 32.2422C129.883 32.2422 131.047 32.0859 132.125 31.7734C133.219 31.4453 134.281 30.9688 135.312 30.3438L137.164 34.5625C136.117 35.4062 134.797 36.1094 133.203 36.6719C131.625 37.2188 129.812 37.4922 127.766 37.4922ZM122.867 21.8359H131.328V21.2266C131.328 20.1953 131.188 19.3125 130.906 18.5781C130.641 17.8281 130.203 17.25 129.594 16.8438C129 16.4375 128.227 16.2344 127.273 16.2344C126.367 16.2344 125.602 16.4766 124.977 16.9609C124.352 17.4297 123.859 18.0781 123.5 18.9062C123.156 19.7344 122.922 20.6719 122.797 21.7188L122.867 21.8359ZM150.852 37.4922C148.492 37.4922 146.672 36.8438 145.391 35.5469C144.125 34.25 143.492 32.1953 143.492 29.3828V16.4453H140V11.6406H143.492V5.42969H150.312V11.6406H154.977V16.4453H150.312V29.3594C150.312 30.3438 150.516 31.0469 150.922 31.4688C151.344 31.8906 151.914 32.1016 152.633 32.1016C153.023 32.1016 153.43 32.0781 153.852 32.0312C154.289 31.9688 154.664 31.9062 154.977 31.8438L155.562 36.7891C154.859 36.9922 154.094 37.1562 153.266 37.2812C152.453 37.4219 151.648 37.4922 150.852 37.4922ZM169.742 37V32.8984L173.375 32.1953V7.70312L169.742 7V2.875H173.375H180.312L195.172 26.5469L195.312 26.5234V7.70312L190.953 7V2.875H201.43H205.086V7L201.43 7.70312V37H194.82L179.633 13.5625L179.492 13.5859V32.1953L183.875 32.8984V37H169.742ZM219.594 37.4922C217.094 37.4922 214.945 36.9453 213.148 35.8516C211.352 34.7578 209.977 33.2422 209.023 31.3047C208.07 29.3516 207.594 27.1094 207.594 24.5781V24.0859C207.594 21.5703 208.07 19.3438 209.023 17.4062C209.977 15.4531 211.344 13.9297 213.125 12.8359C214.922 11.7266 217.062 11.1719 219.547 11.1719C222.062 11.1719 224.211 11.7266 225.992 12.8359C227.773 13.9297 229.141 15.4453 230.094 17.3828C231.047 19.3203 231.523 21.5547 231.523 24.0859V24.5781C231.523 27.1094 231.047 29.3516 230.094 31.3047C229.141 33.2422 227.773 34.7578 225.992 35.8516C224.211 36.9453 222.078 37.4922 219.594 37.4922ZM219.594 32.2422C220.781 32.2422 221.75 31.9219 222.5 31.2812C223.25 30.6406 223.805 29.75 224.164 28.6094C224.523 27.4531 224.703 26.1094 224.703 24.5781V24.0859C224.703 22.5859 224.523 21.2656 224.164 20.125C223.805 18.9688 223.242 18.0703 222.477 17.4297C221.727 16.7734 220.75 16.4453 219.547 16.4453C218.375 16.4453 217.406 16.7734 216.641 17.4297C215.875 18.0703 215.312 18.9688 214.953 20.125C214.609 21.2656 214.438 22.5859 214.438 24.0859V24.5781C214.438 26.1094 214.609 27.4531 214.953 28.6094C215.312 29.7656 215.875 30.6641 216.641 31.3047C217.406 31.9297 218.391 32.2422 219.594 32.2422ZM244.367 37.4922C242.008 37.4922 240.188 36.8438 238.906 35.5469C237.641 34.25 237.008 32.1953 237.008 29.3828V16.4453H233.516V11.6406H237.008V5.42969H243.828V11.6406H248.492V16.4453H243.828V29.3594C243.828 30.3438 244.031 31.0469 244.438 31.4688C244.859 31.8906 245.43 32.1016 246.148 32.1016C246.539 32.1016 246.945 32.0781 247.367 32.0312C247.805 31.9688 248.18 31.9062 248.492 31.8438L249.078 36.7891C248.375 36.9922 247.609 37.1562 246.781 37.2812C245.969 37.4219 245.164 37.4922 244.367 37.4922ZM263.234 37.4922C260.812 37.4922 258.695 36.9609 256.883 35.8984C255.07 34.8203 253.664 33.3438 252.664 31.4688C251.68 29.5938 251.188 27.4531 251.188 25.0469V24.1094C251.188 21.5938 251.656 19.3672 252.594 17.4297C253.531 15.4766 254.852 13.9453 256.555 12.8359C258.273 11.7109 260.297 11.1562 262.625 11.1719C264.922 11.1719 266.852 11.625 268.414 12.5312C269.977 13.4375 271.164 14.7422 271.977 16.4453C272.789 18.1484 273.195 20.2109 273.195 22.6328V26.3594H258.289L258.242 26.5C258.336 27.6094 258.609 28.6016 259.062 29.4766C259.531 30.3359 260.188 31.0156 261.031 31.5156C261.875 32 262.898 32.2422 264.102 32.2422C265.352 32.2422 266.516 32.0859 267.594 31.7734C268.688 31.4453 269.75 30.9688 270.781 30.3438L272.633 34.5625C271.586 35.4062 270.266 36.1094 268.672 36.6719C267.094 37.2188 265.281 37.4922 263.234 37.4922ZM258.336 21.8359H266.797V21.2266C266.797 20.1953 266.656 19.3125 266.375 18.5781C266.109 17.8281 265.672 17.25 265.062 16.8438C264.469 16.4375 263.695 16.2344 262.742 16.2344C261.836 16.2344 261.07 16.4766 260.445 16.9609C259.82 17.4297 259.328 18.0781 258.969 18.9062C258.625 19.7344 258.391 20.6719 258.266 21.7188L258.336 21.8359ZM287.281 37.4922C285.391 37.4922 283.625 37.3125 281.984 36.9531C280.359 36.5938 278.797 36.0781 277.297 35.4062L277.227 28.2344H281.984L282.898 31.8906C283.43 32.1562 284.008 32.3672 284.633 32.5234C285.273 32.6797 286 32.7578 286.812 32.7578C288.344 32.7578 289.422 32.5078 290.047 32.0078C290.672 31.5078 290.984 30.8828 290.984 30.1328C290.984 29.4297 290.648 28.8125 289.977 28.2812C289.32 27.7344 288 27.2578 286.016 26.8516C283.016 26.2266 280.805 25.2578 279.383 23.9453C277.961 22.6328 277.25 20.9531 277.25 18.9062C277.25 17.5 277.602 16.2188 278.305 15.0625C279.023 13.9062 280.109 12.9766 281.562 12.2734C283.031 11.5703 284.906 11.2188 287.188 11.2188C289.094 11.2188 290.836 11.4062 292.414 11.7812C294.008 12.1406 295.344 12.6172 296.422 13.2109L296.492 20.1484H291.758L291.031 16.8203C290.609 16.5078 290.109 16.2734 289.531 16.1172C288.969 15.9609 288.328 15.8828 287.609 15.8828C286.406 15.8828 285.484 16.125 284.844 16.6094C284.203 17.0938 283.883 17.7188 283.883 18.4844C283.883 18.9219 283.992 19.3281 284.211 19.7031C284.445 20.0781 284.898 20.4297 285.57 20.7578C286.242 21.0859 287.219 21.3984 288.5 21.6953C291.641 22.4141 293.93 23.375 295.367 24.5781C296.805 25.7656 297.523 27.4375 297.523 29.5938C297.523 31.9531 296.664 33.8594 294.945 35.3125C293.242 36.7656 290.688 37.4922 287.281 37.4922Z" fill="#FF9000"/>
</svg>